<svg width="110" height="110" viewBox="0 0 110 110" fill="none" xmlns="http://www.w3.org/2000/svg">
<circle cx="55" cy="55" r="55" fill="url(#paint0_linear_1163_1447)"/>
<circle cx="55" cy="55" r="55" fill="black" fill-opacity="0.05"/>
<path d="M55.8002 22C38.0587 22 23 33.1231 23 54.6953C23.6763 75.2562 43.6269 86.3794 54.7858 87.7276C59.8579 88.3405 76.3881 87.7276 76.3881 87.7276C77.0038 87.7276 77.2992 86.9744 76.8468 86.5581L70.3977 80.6205C69.8724 80.1369 70.0086 79.2726 70.643 78.945C80.5434 73.8341 87.2478 63.9846 87.2478 52.6729C87.2478 36.105 73.5417 22 55.8002 22Z" fill="white" fill-opacity="0.5"/>
<path d="M47.7964 26.6073C47.6119 25.8547 46.8495 25.3924 46.1072 25.6148C42.5899 26.6683 39.2846 28.3518 36.3507 30.5885C33.4074 32.8323 30.8923 35.5915 28.9231 38.7309C28.5177 39.3772 28.7496 40.2221 29.4102 40.6039V40.6039C30.0785 40.99 30.9306 40.7554 31.3441 40.1037C33.1234 37.2997 35.3834 34.8333 38.0215 32.8221C40.6596 30.8109 43.6278 29.2915 46.7861 28.3312C47.5229 28.1072 47.9798 27.3552 47.7964 26.6073V26.6073Z" fill="white" fill-opacity="0.8"/>
<path d="M52.542 25.8279C52.4821 25.0565 51.8071 24.4768 51.0394 24.5733C51.0106 24.577 50.9818 24.5806 50.9529 24.5843C50.1883 24.6827 49.6802 25.4086 49.8111 26.1683L49.8263 26.2562C49.9494 26.9709 50.6296 27.4463 51.349 27.355V27.355C52.0661 27.2639 52.6048 26.6373 52.5489 25.9167L52.542 25.8279Z" fill="white" fill-opacity="0.8"/>
<defs>
<linearGradient id="paint0_linear_1163_1447" x1="38.9764" y1="3.46457" x2="92.6772" y2="104.803" gradientUnits="userSpaceOnUse">
<stop stop-color="#72CCD0"/>
<stop offset="1" stop-color="#3395A4"/>
</linearGradient>
</defs>
</svg>
