<svg width="65" height="66" viewBox="0 0 65 66" fill="none" xmlns="http://www.w3.org/2000/svg">
<path d="M32.8002 0C15.0587 0 0 11.1231 0 32.6953C0.676293 53.2562 20.6269 64.3794 31.7858 65.7276C36.8579 66.3405 53.3881 65.7276 53.3881 65.7276C54.0038 65.7276 54.2992 64.9744 53.8468 64.5581L47.3977 58.6205C46.8724 58.1369 47.0086 57.2726 47.643 56.945C57.5434 51.8341 64.2478 41.9846 64.2478 30.6729C64.2478 14.105 50.5417 0 32.8002 0Z" fill="white" fill-opacity="0.2"/>
<path d="M24.7964 4.60731C24.6119 3.8547 23.8495 3.39241 23.1072 3.61477C19.5899 4.66834 16.2846 6.3518 13.3507 8.58847C10.4074 10.8323 7.89226 13.5915 5.92309 16.7309C5.51767 17.3772 5.74962 18.2221 6.41023 18.6039V18.6039C7.07852 18.99 7.93056 18.7554 8.3441 18.1037C10.1234 15.2997 12.3834 12.8333 15.0215 10.8221C17.6596 8.81092 20.6278 7.2915 23.7861 6.3312C24.5229 6.10718 24.9798 5.35522 24.7964 4.60731V4.60731Z" fill="white" fill-opacity="0.5"/>
<path d="M29.542 3.82785C29.4821 3.05651 28.8071 2.47681 28.0394 2.57333C28.0106 2.57696 27.9818 2.58063 27.9529 2.58434C27.1883 2.68272 26.6802 3.40858 26.8111 4.16832L26.8263 4.25624C26.9494 4.97092 27.6296 5.44635 28.349 5.355V5.355C29.0661 5.26394 29.6048 4.63734 29.5489 3.91669L29.542 3.82785Z" fill="white" fill-opacity="0.5"/>
</svg>
